<svg xmlns="http://www.w3.org/2000/svg" viewBox="0 0 100 100">
  <circle cx="50" cy="50" r="50" fill="#004638"/>
  <svg x="30" y="20" width="40" height="60" viewBox="0 0 118.74 180.78">
    <path fill="#f6f0dc" d="M103.49,73.19h-42.15c-1.56,0-2.82,1.26-2.82,2.82h0c0,1.56,1.26,2.82,2.82,2.82h36.05c1.56,0,2.82,1.26,2.82,2.82v79.23c0,1.56-1.26,2.82-2.82,2.82h-41.69c-1.56,0-2.82-1.26-2.82-2.82v-15.12c0-2.79,1.79-5.27,4.44-6.15h0c4.82-1.27,9.16-4.39,11.85-9.05,2.69-4.66,3.22-9.97,1.92-14.79-4.83,1.27-9.16,4.39-11.85,9.05-2.01,3.47-2.8,7.31-2.53,11.03.06.87-.49,1.66-1.32,1.92h0c-1.24.4-2.5-.52-2.5-1.82v-65.66c0-20.25,14.67-24.4,22.2-37.43,5.98-10.36,7.16-22.16,4.26-32.86-10.72,2.82-20.36,9.75-26.34,20.11-3.68,6.38-5.54,13.3-5.75,20.18h0v.13c-.02.79-.02,1.59,0,2.38v21.24c0,.53-.74.67-.93.18-3.08-7.95-8.79-14.94-16.74-19.54-9.32-5.38-19.95-6.45-29.57-3.83,2.54,9.65,8.78,18.32,18.1,23.7,14.81,8.55,29.15,1.25,29.15,14.28v96.18c0,3.18,2.58,5.77,5.77,5.77h49.16c1.74,0,3.39-.79,4.48-2.14l10.81-13.36c.83-1.03,1.28-2.31,1.28-3.63v-73.21c0-.92-.36-1.8-1.01-2.45l-11.8-11.79c-.65-.65-1.53-1.01-2.45-1.01Z"/>
  </svg>
</svg>
