<?xml version="1.0" encoding="UTF-8"?>
<svg id="Layer_2" data-name="Layer 2" xmlns="http://www.w3.org/2000/svg" viewBox="0 0 325.07 136.55">
  <defs>
    <style>
      .cls-1 {
        fill: #166c53;
      }
    </style>
  </defs>
  <g id="Layer_1-2" data-name="Layer 1">
    <g>
      <g>
        <path class="cls-1" d="M39.01,89.48H14.56c-.1,0-.17-.08-.17-.17v-29.34c0-.48-.39-.86-.86-.86H.86c-.48,0-.86.39-.86.86v74.7c0,.48.39.86.86.86h12.66c.48,0,.86-.39.86-.86v-30.98c0-.1.08-.17.17-.17h24.45c.1,0,.17.08.17.17v30.98c0,.48.39.86.86.86h12.66c.48,0,.86-.39.86-.86V59.96c0-.48-.39-.86-.86-.86h-12.66c-.48,0-.86.39-.86.86v29.34c0,.1-.08.17-.17.17Z"/>
        <path class="cls-1" d="M104.54,85.3c0,.08-.09.11-.14.06-3.93-4.03-9.77-6.31-16.36-6.31-15.42,0-27.05,12.38-27.05,28.8s11.63,28.7,27.05,28.7c6.59,0,12.43-2.28,16.36-6.31.05-.05.14-.02.14.06l.07,4.38c0,.47.39.85.86.85h10.65c.48,0,.86-.39.86-.86v-53.73c0-.48-.39-.86-.86-.86h-10.65c-.47,0-.86.38-.86.85l-.07,4.38ZM89.64,123.54c-8.75,0-14.87-6.45-14.87-15.69s6.11-15.79,14.87-15.79,14.47,6.35,14.47,15.79-5.81,15.69-14.47,15.69Z"/>
        <path class="cls-1" d="M143.46,61.47l-12.05,4.17c-.35.12-.58.45-.58.82v13.44c0,.1-.08.17-.17.17h-6.24c-.48,0-.86.39-.86.86v11.08c0,.48.39.86.86.86h6.24c.1,0,.17.08.17.17l-.1,41.61c0,.48.39.87.86.87h12.05c.48,0,.86-.39.86-.86l.1-41.62c0-.1.08-.17.17-.17h7.7c.48,0,.86-.39.86-.86v-11.08c0-.48-.39-.86-.86-.86h-7.69c-.1,0-.17-.08-.17-.17v-17.61c0-.59-.59-1.01-1.15-.82Z"/>
        <path class="cls-1" d="M183.92,79.35c-16.69,0-28.35,11.72-28.35,28.5s11.66,28.5,28.35,28.5c2.17,0,6.57-.51,8.34-.72.43-.05.76-.42.76-.86v-11.09c0-.53-.47-.94-1-.85-4.5.7-22.66,2.44-22.66-14.97s18.13-15.73,22.65-14.96c.53.09,1.01-.31,1.01-.85v-11.13c0-.43-.32-.8-.75-.86-1.62-.22-5.54-.7-8.35-.7Z"/>
        <path class="cls-1" d="M226.73,78.84c-5.05,0-9.32,1.52-12.47,4.42-.06.05-.14.01-.14-.06.08-3.15.15-6.46.15-9.82v-13.41c0-.48-.39-.86-.86-.86h-12.05c-.48,0-.86.39-.86.86v74.7c0,.48.39.86.86.86h12.05c.48,0,.86-.39.86-.86v-31.42c0-5.11,1.57-11.19,9.05-11.19,5.87,0,8.85,3.76,8.85,11.19v31.42c0,.48.39.86.86.86h12.05c.48,0,.86-.39.86-.86v-32.24c0-14.99-7.01-23.59-19.22-23.59Z"/>
      </g>
      <path class="cls-1" d="M313.63,54.87h-31.6c-1.17,0-2.11.95-2.11,2.11h0c0,1.17.95,2.11,2.11,2.11h27.03c1.17,0,2.11.95,2.11,2.11v59.4c0,1.17-.95,2.11-2.11,2.11h-31.25c-1.17,0-2.11-.95-2.11-2.11v-11.34c0-2.09,1.34-3.95,3.33-4.61h0c3.61-.95,6.86-3.29,8.88-6.79,2.02-3.49,2.42-7.48,1.44-11.08-3.62.95-6.87,3.29-8.88,6.78-1.5,2.6-2.1,5.48-1.9,8.27.05.65-.37,1.24-.99,1.44h0c-.93.3-1.88-.39-1.88-1.36v-49.23c0-15.18,11-18.29,16.64-28.06,4.48-7.76,5.37-16.62,3.19-24.63-8.04,2.12-15.26,7.31-19.74,15.07-2.76,4.78-4.15,9.97-4.31,15.13h0v.1c-.02.59-.02,1.19,0,1.78v15.92c0,.4-.55.5-.7.13-2.31-5.96-6.59-11.2-12.55-14.65-6.99-4.03-14.95-4.83-22.17-2.87,1.9,7.24,6.58,13.74,13.57,17.77,11.1,6.41,21.85.94,21.85,10.71v72.11c0,2.39,1.93,4.32,4.32,4.32h36.85c1.3,0,2.54-.59,3.36-1.6l8.11-10.01c.62-.77.96-1.73.96-2.72v-54.88c0-.69-.27-1.35-.76-1.83l-8.85-8.84c-.49-.49-1.15-.76-1.83-.76Z"/>
    </g>
  </g>
</svg>
